<svg width="24" height="24" viewBox="0 0 24 24" fill="none" xmlns="http://www.w3.org/2000/svg">
<g clip-path="url(#clip0_531_685)">
<path d="M12.653 18.5942C12.6587 17.9314 12.4009 17.2933 11.9362 16.8205C11.4716 16.3477 10.8382 16.0788 10.1753 16.0729L9.63156 16.0674C9.41564 13.3418 9.43955 10.6024 9.70303 7.88087L10.2475 7.88562C10.5758 7.88853 10.9015 7.82673 11.206 7.70374C11.5104 7.58076 11.7877 7.399 12.0219 7.16885C12.2561 6.9387 12.4427 6.66467 12.571 6.3624C12.6992 6.06014 12.7667 5.73556 12.7695 5.40721L12.795 2.40707C12.8007 1.74418 12.5429 1.10617 12.0782 0.633352C11.6136 0.160529 10.9802 -0.108394 10.3173 -0.114281L8.67123 -0.12865C7.86611 -0.132611 7.08411 0.140336 6.45633 0.64443C5.82854 1.14852 5.39314 1.85312 5.22312 2.64009C3.92969 8.76283 3.8738 15.0824 5.05874 21.2271C5.22046 22.0142 5.64503 22.723 6.26273 23.237C6.88044 23.751 7.65457 24.0396 8.45799 24.0556L10.1048 24.0707C10.7677 24.0764 11.4057 23.8185 11.8785 23.3539C12.3513 22.8892 12.6202 22.2558 12.6261 21.593L12.653 18.5942Z" fill="#708D81"/>
<path d="M20.2038 3.22912C20.0179 3.03996 19.7645 2.93238 19.4993 2.93007C19.2341 2.92775 18.9788 3.03088 18.7897 3.21678C18.6005 3.40267 18.4929 3.65609 18.4906 3.9213C18.4883 4.18651 18.5914 4.44177 18.7773 4.63094C20.7263 6.61871 21.8071 9.29838 21.7828 12.0821C21.7585 14.8658 20.631 17.5262 18.6477 19.4796C18.4585 19.6655 18.351 19.9189 18.3487 20.1841C18.3463 20.4493 18.4495 20.7046 18.6354 20.8938C18.8213 21.0829 19.0747 21.1905 19.3399 21.1928C19.6051 21.1951 19.8604 21.092 20.0495 20.9061C22.4105 18.5805 23.7526 15.4134 23.7815 12.0995C23.8104 8.78566 22.5238 5.59561 20.2038 3.22912V3.22912Z" fill="#708D81"/>
<path d="M15.9243 7.4344C17.1306 8.665 17.7997 10.3238 17.7846 12.047C17.7696 13.7702 17.0717 15.4171 15.8441 16.6264C15.6549 16.8123 15.5473 17.0658 15.545 17.331C15.5427 17.5962 15.6458 17.8514 15.8317 18.0406C16.0176 18.2298 16.271 18.3373 16.5362 18.3397C16.8015 18.342 17.0567 18.2388 17.2459 18.0529C18.8514 16.4715 19.764 14.3179 19.7837 12.0645C19.8034 9.81102 18.9284 7.64178 17.3508 6.03259C17.1649 5.84342 16.9115 5.73585 16.6463 5.73353C16.3811 5.73122 16.1258 5.83435 15.9367 6.02024C15.7475 6.20614 15.6399 6.45956 15.6376 6.72477C15.6353 6.98997 15.7384 7.24524 15.9243 7.4344V7.4344Z" fill="#708D81"/>
<path d="M13.0713 10.2381C13.536 10.711 13.7938 11.3492 13.7881 12.0122C13.7823 12.6752 13.5133 13.3088 13.0404 13.7735C12.8513 13.9594 12.7437 14.2128 12.7414 14.478C12.739 14.7432 12.8422 14.9985 13.0281 15.1877C13.214 15.3768 13.4674 15.4844 13.7326 15.4867C13.9978 15.489 14.2531 15.3859 14.4422 15.2C15.2923 14.3628 15.7755 13.2227 15.7859 12.0296C15.7963 10.8366 15.3331 9.68819 14.4978 8.8363C14.3119 8.64713 14.0585 8.53956 13.7933 8.53724C13.5281 8.53493 13.2728 8.63806 13.0836 8.82395C12.8945 9.00985 12.7869 9.26327 12.7846 9.52848C12.7823 9.79368 12.8854 10.0489 13.0713 10.2381V10.2381Z" fill="#708D81"/>
</g>
<defs>
<clipPath id="clip0_531_685">
<rect width="24" height="24" fill="white"/>
</clipPath>
</defs>
</svg>
