<svg width="24" height="24" viewBox="0 0 24 24" fill="none" xmlns="http://www.w3.org/2000/svg">
<path d="M17.167 16.155C16.6982 15.6864 16.0625 15.4231 15.3995 15.4231C14.7366 15.4231 14.1009 15.6864 13.632 16.155L13.247 16.539C11.1516 14.7826 9.21449 12.8455 7.45804 10.75L7.84304 10.365C8.07526 10.1329 8.25947 9.85726 8.38514 9.5539C8.51082 9.25054 8.57551 8.9254 8.57551 8.59704C8.57551 8.26868 8.51082 7.94354 8.38514 7.64018C8.25947 7.33682 8.07526 7.0612 7.84304 6.82904L5.72104 4.70804C5.25222 4.23936 4.61645 3.97607 3.95354 3.97607C3.29063 3.97607 2.65486 4.23936 2.18604 4.70804L1.02204 5.87204C0.454905 6.44351 0.101474 7.19259 0.0210003 7.99368C-0.0594731 8.79477 0.137904 9.59918 0.580041 10.272C4.04053 15.4861 8.50881 19.9554 13.722 23.417C14.3968 23.8534 15.1999 24.0474 15.9995 23.967C16.7991 23.8867 17.5475 23.5369 18.122 22.975L19.287 21.811C19.7557 21.3422 20.019 20.7065 20.019 20.0435C20.019 19.3806 19.7557 18.7449 19.287 18.276L17.167 16.155Z" fill="#708D81"/>
<path d="M11.5 0C11.2348 0 10.9804 0.105357 10.7929 0.292893C10.6054 0.48043 10.5 0.734784 10.5 1C10.5 1.26522 10.6054 1.51957 10.7929 1.70711C10.9804 1.89464 11.2348 2 11.5 2C14.2838 2.00318 16.9527 3.11044 18.9211 5.07889C20.8896 7.04733 21.9968 9.7162 22 12.5C22 12.7652 22.1054 13.0196 22.2929 13.2071C22.4804 13.3946 22.7348 13.5 23 13.5C23.2652 13.5 23.5196 13.3946 23.7071 13.2071C23.8946 13.0196 24 12.7652 24 12.5C23.996 9.18601 22.6778 6.00889 20.3344 3.66555C17.9911 1.32221 14.814 0.00396964 11.5 0V0Z" fill="#708D81"/>
<path d="M11.5 6C13.2233 6.00212 14.8753 6.68762 16.0939 7.90614C17.3124 9.12467 17.9979 10.7767 18 12.5C18 12.7652 18.1054 13.0196 18.2929 13.2071C18.4804 13.3946 18.7348 13.5 19 13.5C19.2652 13.5 19.5196 13.3946 19.7071 13.2071C19.8946 13.0196 20 12.7652 20 12.5C19.9974 10.2465 19.101 8.086 17.5075 6.49252C15.914 4.89903 13.7535 4.00265 11.5 4C11.2348 4 10.9804 4.10536 10.7929 4.29289C10.6054 4.48043 10.5 4.73478 10.5 5C10.5 5.26522 10.6054 5.51957 10.7929 5.70711C10.9804 5.89464 11.2348 6 11.5 6V6Z" fill="#708D81"/>
<path d="M11.5 10C12.163 10 12.7989 10.2634 13.2678 10.7322C13.7366 11.2011 14 11.837 14 12.5C14 12.7652 14.1054 13.0196 14.2929 13.2071C14.4804 13.3946 14.7348 13.5 15 13.5C15.2652 13.5 15.5196 13.3946 15.7071 13.2071C15.8946 13.0196 16 12.7652 16 12.5C15.9987 11.3069 15.5241 10.1631 14.6805 9.31948C13.8369 8.47585 12.6931 8.00132 11.5 8C11.2348 8 10.9804 8.10536 10.7929 8.29289C10.6054 8.48043 10.5 8.73478 10.5 9C10.5 9.26522 10.6054 9.51957 10.7929 9.70711C10.9804 9.89464 11.2348 10 11.5 10V10Z" fill="#708D81"/>
</svg>
