<svg width="93" height="52" viewBox="0 0 93 52" fill="none" xmlns="http://www.w3.org/2000/svg">
<path d="M35 32V10L32 7" stroke="#708D81" stroke-width="2" stroke-linejoin="round"/>
<path d="M35 16L39 12" stroke="#708D81" stroke-width="2" stroke-linejoin="round"/>
<path d="M35 19L31 15" stroke="#708D81" stroke-width="2" stroke-linejoin="round"/>
<path d="M35 10L38 7" stroke="#708D81" stroke-width="2" stroke-linejoin="round"/>
<path d="M35 23C41.0751 23 46 18.0751 46 12C46 5.92487 41.0751 1 35 1C28.9249 1 24 5.92487 24 12C24 18.0751 28.9249 23 35 23Z" stroke="#708D81" stroke-width="2" stroke-linejoin="round"/>
<path d="M0.937199 41.0015L0.948306 34.4561L6.09603 34.4648L6.08492 41.0103L5.07924 41.0086L5.08876 35.4006L1.9524 35.3953L1.94288 41.0033L0.937199 41.0015ZM10.5804 41.1543C9.98951 41.1533 9.47129 41.0118 9.02574 40.7298C8.58304 40.4478 8.23711 40.0537 7.98797 39.5476C7.74167 39.0415 7.61909 38.4504 7.62024 37.7742C7.6214 37.0924 7.74599 36.4975 7.99401 35.9894C8.24487 35.4813 8.59213 35.087 9.03579 34.8065C9.48229 34.526 10.001 34.3862 10.5919 34.3872C11.1828 34.3882 11.6996 34.5297 12.1423 34.8117C12.5879 35.0938 12.9338 35.4892 13.1801 35.9982C13.4292 36.5071 13.5532 37.1025 13.5521 37.7843C13.5509 38.4604 13.4249 39.0511 13.174 39.5564C12.926 40.0617 12.5788 40.4545 12.1323 40.735C11.6886 41.0155 11.1713 41.1553 10.5804 41.1543ZM10.582 40.2509C11.0308 40.2516 11.4003 40.1372 11.6905 39.9076C11.9807 39.678 12.1957 39.3758 12.3355 39.001C12.4753 38.6262 12.5456 38.2201 12.5464 37.7826C12.5471 37.3451 12.4782 36.9373 12.3396 36.5592C12.2011 36.1812 11.9871 35.8754 11.6977 35.642C11.4084 35.4085 11.0392 35.2914 10.5904 35.2906C10.1415 35.2899 9.77199 35.4057 9.48182 35.6382C9.19166 35.8707 8.97665 36.1757 8.8368 36.5533C8.69696 36.9309 8.62667 37.3385 8.62592 37.776C8.62518 38.2135 8.69409 38.6198 8.83266 38.9951C8.97123 39.3703 9.1852 39.6732 9.47459 39.9038C9.76397 40.1344 10.1331 40.2501 10.582 40.2509ZM14.5022 41.0246L14.5038 40.0871L14.7424 40.0875C14.9384 40.0878 15.1018 40.0497 15.2326 39.9732C15.3635 39.8939 15.4688 39.7563 15.5487 39.5604C15.6314 39.3617 15.6944 39.0862 15.7376 38.734C15.7836 38.379 15.8171 37.9274 15.8379 37.3791L15.9621 34.4816L20.3258 34.489L20.3147 41.0344L19.309 41.0327L19.3185 35.4248L16.9151 35.4207L16.8089 37.7557C16.7852 38.2926 16.7361 38.7656 16.6616 39.1745C16.5898 39.5807 16.4799 39.9214 16.3317 40.1967C16.1863 40.472 15.9928 40.6791 15.7511 40.8179C15.5094 40.9567 15.2067 41.0258 14.8431 41.0251L14.5022 41.0246ZM23.168 39.5563L26.33 34.4992L27.4891 34.5011L27.478 41.0466L26.4723 41.0449L26.4809 35.9824L23.336 41.0396L22.1598 41.0376L22.1709 34.4921L23.1766 34.4938L23.168 39.5563ZM28.4389 35.4403L28.4405 34.5028L33.7586 34.5118L33.757 35.4493L31.6093 35.4456L31.5998 41.0536L30.5941 41.0519L30.6036 35.4439L28.4389 35.4403ZM37.6187 41.2002C36.9881 41.1991 36.4443 41.059 35.9873 40.7798C35.5333 40.4978 35.1831 40.1051 34.9368 39.6019C34.6933 39.0958 34.5722 38.5075 34.5733 37.837C34.5744 37.1666 34.6976 36.5759 34.9428 36.0649C35.1908 35.5511 35.5352 35.1512 35.9761 34.865C36.4197 34.576 36.937 34.4319 37.5279 34.4329C37.8689 34.4335 38.2054 34.4909 38.5376 34.6051C38.8698 34.7193 39.172 34.9045 39.4443 35.1606C39.7166 35.4139 39.9334 35.7495 40.0946 36.1674C40.2558 36.5853 40.3359 37.0996 40.3349 37.7104L40.3342 38.1366L35.2887 38.128L35.2902 37.2587L39.3129 37.2655C39.3135 36.8962 39.2402 36.5665 39.093 36.2765C38.9486 35.9865 38.7416 35.7575 38.472 35.5894C38.2052 35.4213 37.89 35.337 37.5264 35.3364C37.1258 35.3357 36.7791 35.4345 36.4861 35.6329C36.196 35.8284 35.9726 36.0837 35.8158 36.3988C35.659 36.7139 35.5803 37.0518 35.5797 37.4126L35.5787 37.9921C35.5779 38.4865 35.6624 38.9056 35.8323 39.2497C36.005 39.5909 36.2446 39.8512 36.5511 40.0307C36.8576 40.2074 37.214 40.2961 37.6203 40.2967C37.8845 40.2972 38.1232 40.2607 38.3364 40.1872C38.5524 40.1108 38.7387 39.9975 38.8952 39.8472C39.0517 39.6941 39.1728 39.5039 39.2584 39.2768L40.2295 39.5512C40.1267 39.8805 39.9543 40.17 39.7124 40.4196C39.4705 40.6664 39.1719 40.859 38.8165 40.9976C38.4612 41.1334 38.0619 41.2009 37.6187 41.2002ZM42.4443 34.5265L44.008 37.2053L45.5807 34.5318L46.7398 34.5338L44.6206 37.8029L46.7287 41.0793L45.5696 41.0773L44.0057 38.5349L42.4332 41.072L41.2741 41.07L43.3592 37.8008L41.2853 34.5245L42.4443 34.5265ZM52.5507 37.3562L52.5491 38.2937L48.9355 38.2875L48.9371 37.35L52.5507 37.3562ZM49.1805 34.5379L49.1694 41.0834L48.1637 41.0817L48.1748 34.5362L49.1805 34.5379ZM53.3225 34.545L53.3114 41.0904L52.3057 41.0887L52.3168 34.5433L53.3225 34.545ZM56.1563 39.6123L59.3183 34.5552L60.4773 34.5571L60.4662 41.1026L59.4606 41.1009L59.4691 36.0384L56.3242 41.0955L55.1481 41.0935L55.1592 34.5481L56.1648 34.5498L56.1563 39.6123ZM62.3082 41.1057L62.3193 34.5602L63.325 34.562L63.3202 37.4085L63.9849 37.4097L66.342 34.5671L67.6375 34.5693L64.9901 37.7182L67.6605 41.1148L66.365 41.1126L64.222 38.3476L63.3186 38.346L63.3139 41.1074L62.3082 41.1057Z" fill="#708D81"/>
</svg>
