<svg xmlns="http://www.w3.org/2000/svg" viewBox="0 0 100 100">
  <path fill="#EDEDED" d="M77.737,20H22.263C21.018,20,20,21.033,20,22.293v55.414C20,78.965,21.018,80,22.263,80h55.474
	C78.98,80,80,78.965,80,77.707V22.293C80,21.033,78.982,20,77.737,20z M73.612,65.403H25.728V26.184h47.884
	C73.612,26.184,73.612,65.403,73.612,65.403z M34.955,42.924c3.673,0,6.649-3.017,6.649-6.733c0-3.716-2.979-6.733-6.649-6.733
	c-3.671,0-6.649,3.015-6.649,6.733S31.282,42.924,34.955,42.924z M36.234,52.169l-6.24,7.449c-1.554,1.856-0.859,3.371,1.541,3.371
	h35.734c2.4,0,3.405-1.734,2.235-3.859L58.732,39.616c-1.17-2.119-3.169-2.173-4.444-0.111l-6.264,10.134
	c-1.275,2.061-3.812,2.715-5.64,1.455C40.552,49.835,37.788,50.317,36.234,52.169z"/>
</svg>
